# xmcd
#
# Track frame offsets:
#	150
#	16490
#	31230
#	52735
#	67285
#	85625
#	101742
#	123590
#	143762
#	158685
#	177780
#	191115
#	214712
#	233295
#	251637
#	271795
#
# Disc length: 3844 seconds
#
# Revision: 0
# Processed by: cddbd v1.4PL0 Copyright (c) Steve Scherf et al.
#
# Submitted via: MusicManager v6.0.0.0
#
DISCID=d10f0210
DTITLE=Karla Bonoff - Premium Best
DYEAR=1900
DGENRE=country
TTITLE0=Personally
TTITLE1=If He's Ever Near
TTITLE2=Never Stop Her Heart
TTITLE3=I Can't Hold On
TTITLE4=Even If
TTITLE5=Trouble Again
TTITLE6=Wild Heart Of The young
TTITLE7=I Don't Want To Miss You
TTITLE8=Baby Don't Go
TTITLE9=Just Walk Away
TTITLE10=When You Walk In The Room
TTITLE11=Restless Night
TTITLE12=Please Be The One
TTITLE13=Someone To Lay Down Beside Me
TTITLE14=Falling Star
TTITLE15=Lose Again
EXTD=
EXTT0=
EXTT1=
EXTT2=
EXTT3=
EXTT4=
EXTT5=
EXTT6=
EXTT7=
EXTT8=
EXTT9=
EXTT10=
EXTT11=
EXTT12=
EXTT13=
EXTT14=
EXTT15=
PLAYORDER=
